# xmcd CD database file
#
# Track frame offsets:
#	182
#	26172
#	51407
#	78065
#	95457
#	123570
#	140360
#	170622
#	186100
#	213615
#
# Disc length: 3072 seconds
#
# Revision: 0
# Processed by: cddbd v1.5PL3 Copyright (c) Steve Scherf et al.
# Submitted via: CDex 1.50
#
DISCID=8c0bfe0a
DTITLE=Raphael Fays - Gipsy Touch
DYEAR=1900
DGENRE=Jazz
TTITLE0=Song for Caroline
TTITLE1=Los Arcos
TTITLE2=Invocation
TTITLE3=Impression Adalouse
TTITLE4=Amanecer
TTITLE5=Angela
TTITLE6=Canela
TTITLE7=Santa Cruz
TTITLE8=Gipsy Touch
TTITLE9=Princesse Noire
EXTD=
EXTT0=
EXTT1=
EXTT2=
EXTT3=
EXTT4=
EXTT5=
EXTT6=
EXTT7=
EXTT8=
EXTT9=
PLAYORDER=
